<?xml version="1.0" encoding="UTF-8" standalone="no"?>
<!-- Created with Inkscape (http://www.inkscape.org/) -->

<svg
   xmlns:dc="http://purl.org/dc/elements/1.1/"
   xmlns:cc="http://creativecommons.org/ns#"
   xmlns:rdf="http://www.w3.org/1999/02/22-rdf-syntax-ns#"
   xmlns:svg="http://www.w3.org/2000/svg"
   xmlns="http://www.w3.org/2000/svg"
   xmlns:sodipodi="http://sodipodi.sourceforge.net/DTD/sodipodi-0.dtd"
   xmlns:inkscape="http://www.inkscape.org/namespaces/inkscape"
   width="66.145828mm"
   height="12.973577mm"
   viewBox="0 0 66.145828 12.973577"
   version="1.1"
   id="svg8"
   inkscape:version="0.92.3 (2405546, 2018-03-11)"
   sodipodi:docname="passion-drone.svg"
   inkscape:export-filename="C:\Users\Marc\passion-drone.png"
   inkscape:export-xdpi="440"
   inkscape:export-ydpi="440">
  <defs
     id="defs2" />
  <sodipodi:namedview
     id="base"
     pagecolor="#ffffff"
     bordercolor="#666666"
     borderopacity="1.0"
     inkscape:pageopacity="0.0"
     inkscape:pageshadow="2"
     inkscape:zoom="0.35"
     inkscape:cx="49.642539"
     inkscape:cy="-182.36527"
     inkscape:document-units="mm"
     inkscape:current-layer="layer1"
     showgrid="false"
     fit-margin-top="0"
     fit-margin-left="0"
     fit-margin-right="0"
     fit-margin-bottom="0"
     inkscape:window-width="1366"
     inkscape:window-height="715"
     inkscape:window-x="-8"
     inkscape:window-y="-8"
     inkscape:window-maximized="1" />
  <metadata
     id="metadata5">
    <rdf:RDF>
      <cc:Work
         rdf:about="">
        <dc:format>image/svg+xml</dc:format>
        <dc:type
           rdf:resource="http://purl.org/dc/dcmitype/StillImage" />
        <dc:title></dc:title>
      </cc:Work>
    </rdf:RDF>
  </metadata>
  <g
     inkscape:label="Calque 1"
     inkscape:groupmode="layer"
     id="layer1"
     transform="translate(-48.834519,-113.92723)">
    <path
       style="fill:#ffffff;fill-opacity:1;stroke-width:0.26458332"
       d="m 48.834519,124.11369 v -2.77813 h 0.926041 0.926042 v 2.77813 2.77812 H 49.76056 48.834519 Z m 6.415012,2.47272 c -0.419459,-0.41946 -0.426568,-1.60846 -0.0121,-2.02293 0.476642,-0.47664 2.328334,-0.41352 2.328334,0.0794 0,0.21829 -0.178594,0.39688 -0.396875,0.39688 -0.218282,0 -0.396875,0.17859 -0.396875,0.39687 0,0.21829 0.187324,0.39688 0.416275,0.39688 0.253491,0 0.381962,0.18106 0.328529,0.46302 -0.107631,0.56795 -1.775935,0.78127 -2.267292,0.28991 z m 2.580821,-1.41439 v -1.71979 h -1.322917 c -0.727604,0 -1.322916,-0.0952 -1.322916,-0.21167 0,-0.53 0.744714,-0.84666 1.991171,-0.84666 1.929884,0 2.506745,0.65845 2.506745,2.86132 v 1.63659 h -0.926041 -0.926042 z m 2.963333,1.40229 c -0.598612,-0.59861 -0.352389,-1.00541 0.608542,-1.00541 0.509323,0 0.926042,0.11906 0.926042,0.26458 0,0.14552 0.178593,0.26458 0.396875,0.26458 0.218281,0 0.396875,0.1786 0.396875,0.39688 0,0.49289 -1.851692,0.55601 -2.328334,0.0794 z m 2.592917,-0.47625 c 0,-0.74432 -0.06335,-0.79375 -1.017326,-0.79375 -1.659532,0 -2.504057,-1.48173 -1.409236,-2.47253 0.723177,-0.65447 1.103645,-0.53179 1.103645,0.35587 0,0.76015 0.04865,0.79375 1.149618,0.79375 1.864273,0 2.601607,1.2185 1.413017,2.33513 -0.841767,0.79079 -1.239718,0.72067 -1.239718,-0.21847 z m 2.819132,0.3099 c -0.632308,-0.69869 -0.550641,-0.83906 0.488159,-0.83906 0.509323,0 0.926042,0.11906 0.926042,0.26458 0,0.14552 0.178594,0.26458 0.396875,0.26458 0.218281,0 0.396875,0.1786 0.396875,0.39688 0,0.58428 -1.65964,0.5189 -2.207951,-0.087 z m 2.472534,-0.3099 c 0,-0.72283 -0.07862,-0.79375 -0.879921,-0.79375 -0.577673,0 -1.077528,-0.21034 -1.455208,-0.61236 -0.694852,-0.73964 -0.722286,-1.16791 -0.11761,-1.83607 0.358718,-0.39638 0.440016,-0.888 0.376,-2.27372 -0.06886,-1.49062 0.0086,-1.88275 0.493687,-2.49945 0.960835,-1.2215 0.585797,-1.50965 -1.964904,-1.50965 -1.232906,0 -2.315232,0.11907 -2.405168,0.26459 -0.08994,0.14552 -0.351673,0.26458 -0.581636,0.26458 -0.346239,0 -0.391181,-0.22741 -0.261434,-1.32292 l 0.156679,-1.32291 h -1.31045 c -0.720748,0 -1.310451,-0.11907 -1.310451,-0.26459 0,-0.16035 1.146528,-0.26458 2.910417,-0.26458 1.763888,0 2.910416,0.10423 2.910416,0.26458 0,0.14552 -0.654844,0.26459 -1.455208,0.26459 -1.53056,0 -1.760171,0.23755 -1.086896,1.12448 0.286708,0.37769 0.76988,0.46302 2.621804,0.46302 1.248676,0 2.33468,-0.10414 2.413343,-0.23142 0.162255,-0.26253 2.603066,-0.61055 4.386124,-0.62538 1.763845,-0.0147 4.497916,0.36765 4.497916,0.62896 0,0.12531 1.117209,0.22784 2.482684,0.22784 2.350973,0 2.491147,-0.0316 2.642219,-0.59532 0.25845,-0.9644 0.226076,-0.99218 -1.156153,-0.99218 -0.727604,0 -1.322916,-0.11907 -1.322916,-0.26459 0,-0.16035 1.146527,-0.26458 2.910416,-0.26458 1.76389,0 2.910417,0.10423 2.910417,0.26458 0,0.14552 -0.654844,0.26459 -1.455208,0.26459 -1.090642,0 -1.455209,0.0955 -1.455209,0.38126 0,0.20969 0.119063,0.45484 0.264584,0.54478 0.14552,0.0899 0.264583,0.51368 0.264583,0.94165 0,0.60175 -0.119952,0.77814 -0.529167,0.77814 -0.291041,0 -0.529166,-0.11906 -0.529166,-0.26458 0,-0.15761 -1.004801,-0.26459 -2.485234,-0.26459 -2.863112,0 -3.156014,0.22657 -2.103636,1.62724 0.58524,0.77892 0.649766,1.07493 0.532601,2.44314 -0.125831,1.46938 -0.08995,1.59334 0.638558,2.20634 0.629127,0.52937 0.771877,0.8568 0.771877,1.77047 0,1.26457 -0.800298,2.27156 -1.805302,2.27156 -0.547272,0 -0.57087,-0.0825 -0.411443,-1.439 0.196641,-1.67312 0.02633,-2.32179 -0.551365,-2.1001 -0.461923,0.17725 -0.594061,2.48077 -0.142306,2.48077 0.145521,0 0.264583,0.23812 0.264583,0.52917 0,0.74924 -1.222941,0.70591 -1.867016,-0.0661 -1.098315,-1.31656 -0.321353,-3.9026 1.172514,-3.9026 0.397438,0 0.78872,-0.21084 0.949777,-0.51178 0.444622,-0.83078 0.330476,-2.79931 -0.200334,-3.45483 -0.42939,-0.53027 -0.507498,-0.54555 -0.826146,-0.1616 -0.458949,0.553 -0.724231,0.53486 -1.537848,-0.10513 -0.941401,-0.7405 -1.699996,-0.72024 -0.90107,0.0241 0.740719,0.69008 0.642059,1.29335 -0.297479,1.81892 -0.65232,0.36491 -0.799143,0.36491 -1.451463,0 -0.939537,-0.52557 -1.038199,-1.12884 -0.297478,-1.81892 0.798925,-0.74431 0.04033,-0.76457 -0.901071,-0.0241 -0.807249,0.63499 -1.079447,0.65747 -1.520842,0.12562 -0.298979,-0.36025 -0.387628,-0.35585 -0.826147,0.041 -0.360053,0.32584 -0.49123,0.81642 -0.49123,1.83712 0,2.02284 0.134559,2.22959 1.451119,2.22959 1.141772,0 1.927668,0.51454 1.598752,1.04674 -0.217584,0.35206 -1.379025,0.3605 -1.594663,0.0116 -0.255775,-0.41385 -1.190625,-0.30998 -1.190625,0.13229 0,0.28397 0.289425,0.39688 1.017326,0.39688 1.659532,0 2.504057,1.48173 1.409236,2.47253 -0.784412,0.70988 -1.368229,0.55804 -1.368229,-0.35587 z m 2.645834,-1.45521 v -2.24895 h 0.926041 0.926042 v 2.24895 2.24896 h -0.926042 -0.926041 z m 8.202083,0 v -2.24895 h 1.058333 1.058334 v 2.24895 2.24896 h -1.058334 -1.058333 z m 3.175,0.67461 c 0,-1.18966 -0.106963,-1.63421 -0.43775,-1.81933 -0.640631,-0.35851 -0.245243,-1.10423 0.585472,-1.10423 1.129483,0 1.685383,0.93251 1.695559,2.84427 l 0.0088,1.65364 h -0.926039 -0.926042 z m 4.7625,-1.20377 v -2.77813 h 0.926042 0.926041 v 2.77813 2.77812 h -0.926041 -0.926042 z m 2.116667,2.24896 c 0,-0.38806 0.176389,-0.52917 0.661458,-0.52917 0.637715,0 0.661458,-0.0617 0.661458,-1.71979 0,-1.65806 -0.02373,-1.71979 -0.661458,-1.71979 -0.485069,0 -0.661458,-0.14111 -0.661458,-0.52917 0,-0.44949 0.176389,-0.52917 1.171421,-0.52917 1.588871,0 2.268162,0.83202 2.268162,2.77813 0,1.9461 -0.679291,2.77812 -2.268162,2.77812 -0.995032,0 -1.171421,-0.0797 -1.171421,-0.52916 z m 3.96875,-1.7198 v -2.24895 h 0.926045 0.92604 v 2.24895 2.24896 h -0.92604 -0.926045 z m 5.866955,1.6366 c -1.21738,-1.29585 -0.39913,-3.88555 1.227703,-3.88555 0.6058,0 0.83465,0.86865 0.31368,1.19062 -0.14552,0.0899 -0.26459,0.63275 -0.26459,1.20624 0,0.5735 0.11907,1.04272 0.26459,1.04272 0.14552,0 0.26458,0.23812 0.26458,0.52917 0,0.74462 -1.07478,0.6951 -1.805963,-0.0832 z m 2.070543,0.0832 c 0,-0.29105 0.11907,-0.52917 0.26459,-0.52917 0.14552,0 0.26458,-0.53578 0.26458,-1.19063 0,-0.65484 -0.11906,-1.19062 -0.26458,-1.19062 -0.14552,0 -0.26459,-0.23813 -0.26459,-0.52917 0,-0.37748 0.17639,-0.52916 0.61534,-0.52916 1.614,0 2.41817,2.73458 1.15355,3.92263 -0.79152,0.74359 -1.76889,0.76908 -1.76889,0.0461 z m 3.175,-1.7198 v -2.24895 h 0.92605 0.92604 v 2.24895 2.24896 h -0.92604 -0.92605 z m 2.91042,0.52917 c 0,-1.35231 -0.0848,-1.71979 -0.39687,-1.71979 -0.47842,0 -0.5115,-0.30871 -0.0794,-0.74083 0.46757,-0.46757 1.39024,-0.38638 1.89045,0.16635 0.31535,0.34845 0.43788,0.97781 0.43788,2.24896 v 1.7651 h -0.92604 -0.92604 z m 3.10886,1.0664 c -0.91481,-1.25808 -0.26327,-3.84452 0.96845,-3.84452 0.35143,0 0.42061,0.36987 0.42061,2.24895 0,1.96865 -0.0577,2.24793 -0.46302,2.24065 -0.25466,-0.005 -0.67138,-0.29486 -0.92604,-0.64508 z m 1.65364,0.13944 c 0,-0.4701 0.16512,-0.54438 1.21003,-0.54438 1.00947,0 1.19546,0.0767 1.12219,0.46302 -0.0641,0.33776 -0.39142,0.48503 -1.21002,0.54438 -0.98263,0.0712 -1.1222,0.0136 -1.1222,-0.46302 z m -61.383335,-1.60271 c 0,-0.38806 0.176389,-0.52917 0.661459,-0.52917 0.579563,0 0.661458,-0.11465 0.661458,-0.92604 0,-0.81139 -0.0819,-0.92604 -0.661458,-0.92604 -0.48507,0 -0.661459,-0.14111 -0.661459,-0.52917 0,-0.44977 0.176389,-0.52917 1.175622,-0.52917 1.399587,0 1.999378,0.64034 1.999378,2.13453 0,1.25694 -0.651918,1.83422 -2.071354,1.83422 -0.927257,0 -1.103646,-0.0846 -1.103646,-0.52916 z m 61.383335,-0.1323 c 0,-0.21828 0.17859,-0.39687 0.39688,-0.39687 0.21828,0 0.39687,-0.17859 0.39687,-0.39688 0,-0.21828 -0.17859,-0.39687 -0.39687,-0.39687 -0.22049,0 -0.39688,-0.23519 -0.39688,-0.52917 0,-0.40432 0.17639,-0.52916 0.74763,-0.52916 0.93612,0 1.8982,0.98087 1.8982,1.93528 0,0.67627 -0.0638,0.71055 -1.32291,0.71055 -0.99954,0 -1.32292,-0.097 -1.32292,-0.39688 z m -15.698613,-0.0441 c -0.097,-0.097 -0.17639,-0.39467 -0.17639,-0.66146 0,-0.26679 -0.17859,-0.48507 -0.39687,-0.48507 -0.47842,0 -0.5115,-0.30871 -0.0794,-0.74083 0.83469,-0.83469 2.32833,0.0358 2.32833,1.35698 0,0.59967 -0.11359,0.70677 -0.74965,0.70677 -0.41231,0 -0.82903,-0.0794 -0.92604,-0.17639 z m -33.249305,-1.14653 c 0,-0.14552 -0.238125,-0.26458 -0.529167,-0.26458 -0.293981,0 -0.529166,-0.17639 -0.529166,-0.39688 0,-0.49289 1.851691,-0.55602 2.328333,-0.0794 0.564734,0.56473 0.35599,1.00541 -0.47625,1.00541 -0.436563,0 -0.79375,-0.11906 -0.79375,-0.26458 z m 7.9375,-1.98438 c 0,-0.57956 0.114652,-0.66145 0.926041,-0.66145 0.81139,0 0.926042,0.0819 0.926042,0.66145 0,0.57957 -0.114652,0.66146 -0.926042,0.66146 -0.811389,0 -0.926041,-0.0819 -0.926041,-0.66146 z"
       id="path826"
       inkscape:connector-curvature="0" />
  </g>
</svg>
